<svg width="1051" height="489" viewBox="0 0 1051 489" fill="none" xmlns="http://www.w3.org/2000/svg">
<path d="M72.6898 104.469C71.1756 106.212 68.3416 105.663 67.5886 103.48L42.7403 31.4342C41.9873 29.251 43.8801 27.0714 46.1473 27.5109L120.965 42.0144C123.232 42.4539 124.173 45.1829 122.659 46.9266L72.6898 104.469Z" fill="#FCCC63"/>
<path d="M156.528 117.998C155.122 119.83 152.26 119.453 151.376 117.319L122.227 46.9033C121.344 44.7695 123.102 42.4797 125.391 42.7816L200.947 52.7454C203.237 53.0473 204.341 55.7146 202.935 57.5465L156.528 117.998Z" fill="#73E7D3"/>
<path d="M241.546 126.481C240.14 128.313 237.278 127.935 236.394 125.802L207.245 55.3863C206.362 53.2525 208.12 50.9627 210.409 51.2646L285.965 61.2284C288.255 61.5303 289.359 64.1976 287.953 66.0294L241.546 126.481Z" fill="#FF3861"/>
<path d="M326.917 134.712C325.64 136.636 322.758 136.456 321.731 134.388L287.818 66.1387C286.791 64.0705 288.387 61.6655 290.692 61.8096L366.754 66.5651C369.059 66.7092 370.343 69.2944 369.066 71.2184L326.917 134.712Z" fill="#FCCC63"/>
<path d="M412.027 139.541C410.827 141.514 407.941 141.448 406.832 139.422L370.247 72.568C369.138 70.5421 370.638 68.0757 372.947 68.1286L449.137 69.872C451.446 69.9248 452.832 72.4572 451.632 74.4303L412.027 139.541Z" fill="#73E7D3"/>
<path d="M492.096 142.684C490.896 144.658 488.01 144.591 486.902 142.566L450.316 75.7111C449.208 73.6853 450.708 71.2189 453.017 71.2718L529.207 73.0152C531.516 73.068 532.902 75.6004 531.701 77.5735L492.096 142.684Z" fill="#FF3861"/>
<path d="M575.682 143.482C574.56 145.501 571.674 145.548 570.487 143.567L531.312 78.1954C530.125 76.2145 531.528 73.6913 533.837 73.6537L610.037 72.4135C612.346 72.3759 613.83 74.8521 612.708 76.8706L575.682 143.482Z" fill="#FCCC63"/>
<path d="M660.348 139.598C659.345 141.679 656.466 141.894 655.166 139.985L612.257 77.0024C610.956 75.0938 612.21 72.4934 614.513 72.3216L690.512 66.6524C692.815 66.4806 694.44 68.8663 693.437 70.9467L660.348 139.598Z" fill="#73E7D3"/>
<path d="M745.304 130.977C744.408 133.106 741.544 133.467 740.148 131.627L694.086 70.9126C692.69 69.0728 693.81 66.4119 696.101 66.123L771.712 56.589C774.004 56.3001 775.748 58.5999 774.853 60.7287L745.304 130.977Z" fill="#FF3861"/>
<path d="M829.301 118.763C828.499 120.928 825.653 121.414 824.178 119.636L775.521 60.9811C774.046 59.2036 775.049 56.4966 777.325 56.1084L852.451 43.2972C854.728 42.909 856.571 45.1308 855.769 47.2964L829.301 118.763Z" fill="#FCCC63"/>
<path d="M914.726 100.289C914.081 102.507 911.278 103.195 909.68 101.528L856.935 46.5189C855.337 44.8519 856.143 42.0798 858.385 41.5291L932.397 23.356C934.64 22.8053 936.638 24.889 935.993 27.1066L914.726 100.289Z" fill="#FF3861"/>
<path d="M995.126 81.964C994.481 84.1817 991.678 84.8701 990.08 83.2031L937.335 28.1937C935.737 26.5267 936.543 23.7546 938.785 23.2039L1012.8 5.03078C1015.04 4.48008 1017.04 6.56377 1016.39 8.78143L995.126 81.964Z" fill="#73E7D3"/>
</svg>
